{
    "asset" : {
        "generator" : "Khronos glTF Blender I/O v3.4.50",
        "version" : "2.0"
    },
    "scene" : 0,
    "scenes" : [
        {
            "name" : "Scene",
            "nodes" : [
                0,
                1,
                2,
                3,
                4
            ]
        }
    ],
    "nodes" : [
        {
            "mesh" : 0,
            "name" : "Cube.001",
            "scale" : [
                136.66407775878906,
                136.66407775878906,
                136.66407775878906
            ],
            "translation" : [
                18.871034622192383,
                66.19137573242188,
                -7.531490325927734
            ]
        },
        {
            "mesh" : 1,
            "name" : "4.001",
            "scale" : [
                290.1844482421875,
                136.66407775878906,
                290.1844482421875
            ],
            "translation" : [
                221.77792358398438,
                -132.90673828125,
                -143.2979736328125
            ]
        },
        {
            "mesh" : 2,
            "name" : "2.001",
            "scale" : [
                265.5849304199219,
                136.66407775878906,
                265.5849304199219
            ],
            "translation" : [
                221.77792358398438,
                -0.6817546486854553,
                -143.2979736328125
            ]
        },
        {
            "mesh" : 3,
            "name" : "1.001",
            "scale" : [
                250.5518798828125,
                136.66407775878906,
                250.5518798828125
            ],
            "translation" : [
                221.77792358398438,
                64.9381103515625,
                -143.2979736328125
            ]
        },
        {
            "mesh" : 4,
            "name" : "3.003",
            "scale" : [
                279.9630432128906,
                279.9630432128906,
                279.9630432128906
            ],
            "translation" : [
                224.8687744140625,
                -68.221923828125,
                -144.9500274658203
            ]
        }
    ],
    "materials" : [
        {
            "doubleSided" : true,
            "name" : "baked",
            "normalTexture" : {
                "index" : 0
            },
            "pbrMetallicRoughness" : {
                "baseColorTexture" : {
                    "index" : 1
                },
                "metallicFactor" : 0,
                "metallicRoughnessTexture" : {
                    "index" : 2
                }
            }
        },
        {
            "alphaMode" : "BLEND",
            "doubleSided" : true,
            "name" : "4.002",
            "pbrMetallicRoughness" : {
                "metallicFactor" : 0,
                "roughnessFactor" : 0.5
            }
        },
        {
            "alphaMode" : "BLEND",
            "doubleSided" : true,
            "name" : "2.002",
            "pbrMetallicRoughness" : {
                "metallicFactor" : 0,
                "roughnessFactor" : 0.5
            }
        },
        {
            "alphaMode" : "BLEND",
            "doubleSided" : true,
            "name" : "1.002",
            "pbrMetallicRoughness" : {
                "metallicFactor" : 0,
                "roughnessFactor" : 0.5
            }
        },
        {
            "alphaMode" : "BLEND",
            "doubleSided" : true,
            "name" : "3.003",
            "pbrMetallicRoughness" : {
                "baseColorTexture" : {
                    "index" : 3
                },
                "metallicFactor" : 0,
                "roughnessFactor" : 0.5
            }
        }
    ],
    "meshes" : [
        {
            "name" : "Cube.002",
            "primitives" : [
                {
                    "attributes" : {
                        "POSITION" : 0,
                        "TEXCOORD_0" : 1,
                        "TEXCOORD_1" : 2,
                        "NORMAL" : 3
                    },
                    "indices" : 4,
                    "material" : 0
                },
                {
                    "attributes" : {
                        "POSITION" : 5,
                        "TEXCOORD_0" : 6,
                        "TEXCOORD_1" : 7,
                        "NORMAL" : 8
                    },
                    "indices" : 9,
                    "material" : 0
                }
            ]
        },
        {
            "name" : "4.002",
            "primitives" : [
                {
                    "attributes" : {
                        "POSITION" : 10,
                        "TEXCOORD_0" : 11,
                        "NORMAL" : 12
                    },
                    "indices" : 13,
                    "material" : 1
                }
            ]
        },
        {
            "name" : "2.002",
            "primitives" : [
                {
                    "attributes" : {
                        "POSITION" : 14,
                        "TEXCOORD_0" : 15,
                        "NORMAL" : 16
                    },
                    "indices" : 13,
                    "material" : 2
                }
            ]
        },
        {
            "name" : "1.002",
            "primitives" : [
                {
                    "attributes" : {
                        "POSITION" : 17,
                        "TEXCOORD_0" : 18,
                        "NORMAL" : 19
                    },
                    "indices" : 13,
                    "material" : 3
                }
            ]
        },
        {
            "name" : "3.003",
            "primitives" : [
                {
                    "attributes" : {
                        "POSITION" : 20,
                        "TEXCOORD_0" : 21,
                        "NORMAL" : 22
                    },
                    "indices" : 13,
                    "material" : 4
                }
            ]
        }
    ],
    "textures" : [
        {
            "sampler" : 0,
            "source" : 0
        },
        {
            "sampler" : 0,
            "source" : 1
        },
        {
            "sampler" : 0,
            "source" : 2
        },
        {
            "sampler" : 1,
            "source" : 3
        }
    ],
    "images" : [
        {
            "mimeType" : "image/jpeg",
            "name" : "paper_frame_normal.jpg",
            "uri" : "paper_frame_normal.jpg"
        },
        {
            "mimeType" : "image/jpeg",
            "name" : "paper_frame_color.jpg",
            "uri" : "paper_frame_color.jpg"
        },
        {
            "mimeType" : "image/jpeg",
            "name" : "paper_frame_roughness.jpg",
            "uri" : "paper_frame_roughness.jpg"
        },
        {
            "mimeType" : "image/png",
            "name" : "3.001",
            "uri" : "../../../../../112fall/%E6%93%B4%E5%A2%9E%E8%88%87%E6%B7%B7%E5%90%88/1215model/AR/resources/3.png"
        }
    ],
    "accessors" : [
        {
            "bufferView" : 0,
            "componentType" : 5126,
            "count" : 4868,
            "max" : [
                2.9921321868896484,
                0.0006791400955989957,
                -0.0005905628204345703
            ],
            "min" : [
                -0.007867813110351562,
                -1.4880645275115967,
                -2.0005905628204346
            ],
            "type" : "VEC3"
        },
        {
            "bufferView" : 1,
            "componentType" : 5126,
            "count" : 4868,
            "type" : "VEC2"
        },
        {
            "bufferView" : 2,
            "componentType" : 5126,
            "count" : 4868,
            "type" : "VEC2"
        },
        {
            "bufferView" : 3,
            "componentType" : 5126,
            "count" : 4868,
            "type" : "VEC3"
        },
        {
            "bufferView" : 4,
            "componentType" : 5123,
            "count" : 7224,
            "type" : "SCALAR"
        },
        {
            "bufferView" : 5,
            "componentType" : 5126,
            "count" : 2104,
            "max" : [
                2.8317391872406006,
                -0.003632100997492671,
                -0.12345027923583984
            ],
            "min" : [
                0.16010309755802155,
                -1.4787051677703857,
                -1.891067624092102
            ],
            "type" : "VEC3"
        },
        {
            "bufferView" : 6,
            "componentType" : 5126,
            "count" : 2104,
            "type" : "VEC2"
        },
        {
            "bufferView" : 7,
            "componentType" : 5126,
            "count" : 2104,
            "type" : "VEC2"
        },
        {
            "bufferView" : 8,
            "componentType" : 5126,
            "count" : 2104,
            "type" : "VEC3"
        },
        {
            "bufferView" : 9,
            "componentType" : 5123,
            "count" : 3144,
            "type" : "SCALAR"
        },
        {
            "bufferView" : 10,
            "componentType" : 5126,
            "count" : 4,
            "max" : [
                0.75,
                0,
                0.5
            ],
            "min" : [
                -0.75,
                0,
                -0.5
            ],
            "type" : "VEC3"
        },
        {
            "bufferView" : 11,
            "componentType" : 5126,
            "count" : 4,
            "type" : "VEC2"
        },
        {
            "bufferView" : 12,
            "componentType" : 5126,
            "count" : 4,
            "type" : "VEC3"
        },
        {
            "bufferView" : 13,
            "componentType" : 5123,
            "count" : 6,
            "type" : "SCALAR"
        },
        {
            "bufferView" : 14,
            "componentType" : 5126,
            "count" : 4,
            "max" : [
                0.75,
                0,
                0.5
            ],
            "min" : [
                -0.75,
                0,
                -0.5
            ],
            "type" : "VEC3"
        },
        {
            "bufferView" : 15,
            "componentType" : 5126,
            "count" : 4,
            "type" : "VEC2"
        },
        {
            "bufferView" : 16,
            "componentType" : 5126,
            "count" : 4,
            "type" : "VEC3"
        },
        {
            "bufferView" : 17,
            "componentType" : 5126,
            "count" : 4,
            "max" : [
                0.75,
                0,
                0.5
            ],
            "min" : [
                -0.75,
                0,
                -0.5
            ],
            "type" : "VEC3"
        },
        {
            "bufferView" : 18,
            "componentType" : 5126,
            "count" : 4,
            "type" : "VEC2"
        },
        {
            "bufferView" : 19,
            "componentType" : 5126,
            "count" : 4,
            "type" : "VEC3"
        },
        {
            "bufferView" : 20,
            "componentType" : 5126,
            "count" : 4,
            "max" : [
                0.75,
                0,
                0.5
            ],
            "min" : [
                -0.75,
                0,
                -0.5
            ],
            "type" : "VEC3"
        },
        {
            "bufferView" : 21,
            "componentType" : 5126,
            "count" : 4,
            "type" : "VEC2"
        },
        {
            "bufferView" : 22,
            "componentType" : 5126,
            "count" : 4,
            "type" : "VEC3"
        }
    ],
    "bufferViews" : [
        {
            "buffer" : 0,
            "byteLength" : 58416,
            "byteOffset" : 0,
            "target" : 34962
        },
        {
            "buffer" : 0,
            "byteLength" : 38944,
            "byteOffset" : 58416,
            "target" : 34962
        },
        {
            "buffer" : 0,
            "byteLength" : 38944,
            "byteOffset" : 97360,
            "target" : 34962
        },
        {
            "buffer" : 0,
            "byteLength" : 58416,
            "byteOffset" : 136304,
            "target" : 34962
        },
        {
            "buffer" : 0,
            "byteLength" : 14448,
            "byteOffset" : 194720,
            "target" : 34963
        },
        {
            "buffer" : 0,
            "byteLength" : 25248,
            "byteOffset" : 209168,
            "target" : 34962
        },
        {
            "buffer" : 0,
            "byteLength" : 16832,
            "byteOffset" : 234416,
            "target" : 34962
        },
        {
            "buffer" : 0,
            "byteLength" : 16832,
            "byteOffset" : 251248,
            "target" : 34962
        },
        {
            "buffer" : 0,
            "byteLength" : 25248,
            "byteOffset" : 268080,
            "target" : 34962
        },
        {
            "buffer" : 0,
            "byteLength" : 6288,
            "byteOffset" : 293328,
            "target" : 34963
        },
        {
            "buffer" : 0,
            "byteLength" : 48,
            "byteOffset" : 299616,
            "target" : 34962
        },
        {
            "buffer" : 0,
            "byteLength" : 32,
            "byteOffset" : 299664,
            "target" : 34962
        },
        {
            "buffer" : 0,
            "byteLength" : 48,
            "byteOffset" : 299696,
            "target" : 34962
        },
        {
            "buffer" : 0,
            "byteLength" : 12,
            "byteOffset" : 299744,
            "target" : 34963
        },
        {
            "buffer" : 0,
            "byteLength" : 48,
            "byteOffset" : 299756,
            "target" : 34962
        },
        {
            "buffer" : 0,
            "byteLength" : 32,
            "byteOffset" : 299804,
            "target" : 34962
        },
        {
            "buffer" : 0,
            "byteLength" : 48,
            "byteOffset" : 299836,
            "target" : 34962
        },
        {
            "buffer" : 0,
            "byteLength" : 48,
            "byteOffset" : 299884,
            "target" : 34962
        },
        {
            "buffer" : 0,
            "byteLength" : 32,
            "byteOffset" : 299932,
            "target" : 34962
        },
        {
            "buffer" : 0,
            "byteLength" : 48,
            "byteOffset" : 299964,
            "target" : 34962
        },
        {
            "buffer" : 0,
            "byteLength" : 48,
            "byteOffset" : 300012,
            "target" : 34962
        },
        {
            "buffer" : 0,
            "byteLength" : 32,
            "byteOffset" : 300060,
            "target" : 34962
        },
        {
            "buffer" : 0,
            "byteLength" : 48,
            "byteOffset" : 300092,
            "target" : 34962
        }
    ],
    "samplers" : [
        {
            "magFilter" : 9729,
            "minFilter" : 9987
        },
        {
            "magFilter" : 9729,
            "minFilter" : 9987,
            "wrapS" : 33071,
            "wrapT" : 33071
        }
    ],
    "buffers" : [
        {
            "byteLength" : 300140,
            "uri" : "box4.bin"
        }
    ]
}
